# Blender v2.78 (sub 0) OBJ File: 'Pob1.blend'
# www.blender.org
mtllib Pob1.mtl
o Cube
v 1.000000 -1.000000 -1.000000
v 1.000000 -1.000000 1.000000
v 1.000000 1.000000 -0.999999
v 0.999999 1.000000 1.000001
v 1.000000 -1.000000 0.000000
v 1.000000 0.000000 -1.000000
v 1.000000 0.000000 1.000000
v 1.000000 1.000000 0.000001
v 2.000000 -0.520579 -0.520579
v 2.000000 -0.520579 0.520580
v 2.000000 0.520579 -0.520579
v 2.000000 0.520579 0.520580
v 2.000000 -0.520579 0.000000
v 2.000000 0.000000 -0.520579
v 2.000000 0.000000 0.520580
v 2.000000 0.520579 0.000001
v 2.000000 0.000000 0.000001
v 2.166736 -1.000000 2.294364
v 2.166735 1.000000 2.294365
v 1.166736 -1.000000 2.294364
v 2.166735 -0.000000 2.294364
v 1.166735 1.000000 2.294364
v 1.166735 -0.000000 2.294364
v 1.399094 -0.512845 5.460631
v 1.399094 0.025710 5.460631
v 1.399094 -0.243568 5.460631
v 1.713270 -0.512846 5.809175
v 1.713270 0.025710 5.809175
v 1.713270 -0.243568 5.809175
v -1.000000 -1.000000 -1.000000
v -1.000000 -1.000000 1.000000
v -1.000000 1.000000 -0.999999
v -0.999999 1.000000 1.000001
v -1.000000 -1.000000 0.000000
v 0.000000 -1.000000 -1.000000
v -1.000000 0.000000 -1.000000
v 0.000000 -1.000000 1.000000
v -1.000000 0.000000 1.000000
v -1.000000 1.000000 0.000001
v 0.000000 1.000000 -1.000000
v 0.000000 1.000000 1.000000
v 0.000000 0.000000 -1.000000
v 0.000000 0.000000 1.000000
v 0.000000 1.000000 0.000000
v 0.000000 -1.000000 -0.000000
v -2.000000 -0.520579 -0.520579
v -2.000000 -0.520579 0.520580
v -2.000000 0.520579 -0.520579
v -2.000000 0.520579 0.520580
v -2.000000 -0.520579 0.000000
v -2.000000 0.000000 -0.520579
v -2.000000 0.000000 0.520580
v -2.000000 0.520579 0.000001
v -2.000000 0.000000 0.000001
v -2.166736 -1.000000 2.294364
v -2.166735 1.000000 2.294365
v -1.166736 -1.000000 2.294364
v -2.166735 -0.000000 2.294364
v -1.166735 1.000000 2.294364
v -1.166735 -0.000000 2.294364
v -1.399094 -0.512845 5.460631
v -1.399094 0.025710 5.460631
v -1.399094 -0.243568 5.460631
v -1.713270 -0.512846 5.809175
v -1.713270 0.025710 5.809175
v -1.713270 -0.243568 5.809175
vn 0.4323 0.9017 0.0000
vn 0.0000 0.0000 -1.0000
vn -0.9542 -0.0000 0.2993
vn 0.0000 -1.0000 -0.0000
vn 0.4323 -0.9017 0.0000
vn 0.4323 0.0000 -0.9017
vn 0.4323 -0.0000 0.9017
vn 0.0000 1.0000 0.0000
vn 1.0000 0.0000 0.0000
vn -0.0000 -0.0000 1.0000
vn 0.7428 0.0000 -0.6695
vn -0.1803 -0.9701 0.1625
vn -0.7428 0.0000 0.6695
vn 0.9881 0.0000 -0.1536
vn -0.3323 0.8943 0.2996
vn -0.4323 0.9017 0.0000
vn 0.9542 -0.0000 0.2993
vn -0.4323 -0.9017 0.0000
vn -0.4323 0.0000 -0.9017
vn -0.4323 -0.0000 0.9017
vn -1.0000 0.0000 0.0000
vn -0.7428 0.0000 -0.6695
vn 0.1803 -0.9701 0.1625
vn 0.7428 0.0000 0.6695
vn -0.9881 0.0000 -0.1536
vn 0.3323 0.8943 0.2996
usemtl Material
s off
f 8//1 12//1 16//1
f 6//2 40//2 3//2
f 1//2 42//2 6//2
f 43//3 24//3 26//3
f 2//4 20//4 37//4
f 5//5 9//5 13//5
f 6//6 9//6 1//6
f 7//7 10//7 15//7
f 44//8 4//8 8//8
f 40//8 8//8 3//8
f 1//4 45//4 35//4
f 5//4 37//4 45//4
f 16//9 15//9 17//9
f 17//9 10//9 13//9
f 14//9 13//9 9//9
f 11//9 17//9 14//9
f 7//7 12//7 4//7
f 6//6 11//6 14//6
f 5//5 10//5 2//5
f 8//1 11//1 3//1
f 21//10 20//10 18//10
f 19//10 23//10 21//10
f 2//11 21//11 18//11
f 20//12 24//12 37//12
f 4//11 21//11 7//11
f 4//8 22//8 19//8
f 24//13 29//13 26//13
f 26//13 28//13 25//13
f 23//14 27//14 20//14
f 22//15 25//15 28//15
f 43//3 25//3 41//3
f 23//14 28//14 29//14
f 8//1 4//1 12//1
f 6//2 42//2 40//2
f 1//2 35//2 42//2
f 43//3 37//3 24//3
f 2//4 18//4 20//4
f 5//5 1//5 9//5
f 6//6 14//6 9//6
f 7//7 2//7 10//7
f 44//8 41//8 4//8
f 40//8 44//8 8//8
f 1//4 5//4 45//4
f 5//4 2//4 37//4
f 16//9 12//9 15//9
f 17//9 15//9 10//9
f 14//9 17//9 13//9
f 11//9 16//9 17//9
f 7//7 15//7 12//7
f 6//6 3//6 11//6
f 5//5 13//5 10//5
f 8//1 16//1 11//1
f 21//10 23//10 20//10
f 19//10 22//10 23//10
f 2//11 7//11 21//11
f 20//12 27//12 24//12
f 4//11 19//11 21//11
f 4//8 41//8 22//8
f 24//13 27//13 29//13
f 26//13 29//13 28//13
f 23//14 29//14 27//14
f 22//15 41//15 25//15
f 43//3 26//3 25//3
f 23//14 22//14 28//14
f 39//16 53//16 49//16
f 36//2 32//2 40//2
f 30//2 36//2 42//2
f 43//17 63//17 61//17
f 31//4 37//4 57//4
f 34//18 50//18 46//18
f 36//19 30//19 46//19
f 38//20 52//20 47//20
f 44//8 39//8 33//8
f 40//8 32//8 39//8
f 30//4 35//4 45//4
f 34//4 45//4 37//4
f 53//21 54//21 52//21
f 54//21 50//21 47//21
f 51//21 46//21 50//21
f 48//21 51//21 54//21
f 38//20 33//20 49//20
f 36//19 51//19 48//19
f 34//18 31//18 47//18
f 39//16 32//16 48//16
f 58//10 55//10 57//10
f 56//10 58//10 60//10
f 31//22 55//22 58//22
f 57//23 37//23 61//23
f 33//22 38//22 58//22
f 33//8 56//8 59//8
f 61//24 63//24 66//24
f 63//24 62//24 65//24
f 60//25 57//25 64//25
f 59//26 65//26 62//26
f 43//17 41//17 62//17
f 60//25 66//25 65//25
f 39//16 49//16 33//16
f 36//2 40//2 42//2
f 30//2 42//2 35//2
f 43//17 61//17 37//17
f 31//4 57//4 55//4
f 34//18 46//18 30//18
f 36//19 46//19 51//19
f 38//20 47//20 31//20
f 44//8 33//8 41//8
f 40//8 39//8 44//8
f 30//4 45//4 34//4
f 34//4 37//4 31//4
f 53//21 52//21 49//21
f 54//21 47//21 52//21
f 51//21 50//21 54//21
f 48//21 54//21 53//21
f 38//20 49//20 52//20
f 36//19 48//19 32//19
f 34//18 47//18 50//18
f 39//16 48//16 53//16
f 58//10 57//10 60//10
f 56//10 60//10 59//10
f 31//22 58//22 38//22
f 57//23 61//23 64//23
f 33//22 58//22 56//22
f 33//8 59//8 41//8
f 61//24 66//24 64//24
f 63//24 65//24 66//24
f 60//25 64//25 66//25
f 59//26 62//26 41//26
f 43//17 62//17 63//17
f 60//25 65//25 59//25
